<svg width="462" height="93" viewBox="0 0 462 93" fill="none" xmlns="http://www.w3.org/2000/svg">
<path fill-rule="evenodd" clip-rule="evenodd" d="M195.26 83.189L160.406 92.9079L125.551 83.189L118.083 0.578354H202.728C200.239 28.1121 197.749 55.6553 195.26 83.189ZM197.292 5.4378H123.519L130.21 79.4305L160.406 87.8586L190.601 79.4305L197.292 5.4378ZM139.993 54.0323H149.951L150.194 60.1066L160.406 63.5044L170.617 60.1066L171.356 49.1728H149.455L148.95 39.4539H171.861L172.601 29.735H138.252L137.503 20.0161H183.065L181.82 39.4539L180.069 67.3958L160.406 73.7169L140.742 67.3958L139.993 54.0323Z" fill="url(#paint0_linear)"/>
<path d="M247.686 2.37836C244.551 2.37836 241.96 4.90659 241.96 7.96666V84.7628C241.96 87.8229 244.551 90.3511 247.686 90.3511H326.374C329.51 90.3511 332.1 87.8311 332.1 84.7628V7.96666C332.1 4.90659 329.518 2.37836 326.374 2.37836H247.686ZM247.686 6.56754H326.374C327.171 6.56754 327.808 7.18937 327.808 7.96666V84.7628C327.808 85.5401 327.171 86.162 326.374 86.162H247.686C246.89 86.162 246.253 85.5401 246.253 84.7628V7.96666C246.253 7.18937 246.89 6.56754 247.686 6.56754ZM282.738 42.1756V68.5134C282.738 72.5553 281.17 73.5944 278.446 73.5944C275.595 73.5944 273.617 71.8598 272.309 69.6098L265.568 73.5944C267.522 77.6281 272.309 81.9728 278.949 81.9728C286.293 81.9728 291.323 78.16 291.323 69.7898V42.1756H282.738ZM309.465 42.1756C302.154 42.1756 297.468 46.7411 297.468 52.7385C297.468 59.2432 301.4 62.3196 307.31 64.7742L309.356 65.6333C313.086 67.2288 314.931 68.2025 314.931 70.9435C314.931 73.2262 313.153 74.879 309.758 74.879C305.717 74.879 303.806 72.2035 302.054 69.4052L295.615 73.5944C298.021 78.2336 302.339 81.9728 309.943 81.9728C317.722 81.9728 323.515 78.0291 323.515 70.8371C323.515 64.1606 319.592 61.1905 312.625 58.2777L310.58 57.4268C307.067 55.9377 305.541 54.9722 305.541 52.5749C305.541 50.6357 307.067 49.1466 309.465 49.1466C311.82 49.1466 313.329 50.1203 314.73 52.5749L321.109 48.5821C318.418 43.9429 314.671 42.1756 309.465 42.1756Z" fill="url(#paint1_linear)"/>
<path d="M435.993 1.34415C434.521 1.29583 432.979 1.54638 431.434 2.03536C428.343 3.01332 425.104 4.91913 421.78 7.55788C420.478 8.59201 419.163 9.77412 417.844 11.0284C416.555 9.80596 415.267 8.65198 413.993 7.64068C410.672 5.00405 407.442 3.10111 404.358 2.12537C401.275 1.14962 398.206 1.11939 395.686 2.53937C393.166 3.95936 391.659 6.56601 390.983 9.66033C390.307 12.7546 390.378 16.4396 391.057 20.565C391.293 21.9979 391.633 23.5012 392.016 25.0327C390.576 25.4586 389.177 25.9064 387.881 26.4007C383.967 27.8924 380.729 29.6771 378.371 31.8008C376.013 33.9245 374.49 36.502 374.49 39.3322C374.49 42.1624 376.013 44.7362 378.371 46.8599C380.729 48.9836 383.967 50.7719 387.881 52.2636C389.267 52.7922 390.768 53.2681 392.318 53.7181C391.761 55.7509 391.309 57.7235 391.001 59.5934C390.322 63.7221 390.25 67.4075 390.928 70.5088C391.605 73.6102 393.113 76.2316 395.645 77.6586C398.178 79.0856 401.26 79.0506 404.351 78.0726C407.442 77.0946 410.677 75.1924 414.001 72.5537C415.291 71.5291 416.597 70.3603 417.903 69.1192C419.216 70.367 420.528 71.5425 421.825 72.5717C425.146 75.2083 428.379 77.1112 431.463 78.087C434.547 79.0627 437.612 79.093 440.132 77.673C442.652 76.253 444.159 73.6463 444.835 70.552C445.511 67.4577 445.437 63.7728 444.758 59.6474C444.449 57.7724 443.997 55.7969 443.437 53.7577C445.038 53.2968 446.587 52.808 448.015 52.2636C451.928 50.7719 455.166 48.9836 457.524 46.8599C459.882 44.7362 461.405 42.1624 461.405 39.3322C461.405 36.502 459.882 33.9245 457.524 31.8008C455.166 29.6771 451.928 27.8924 448.015 26.4007C446.699 25.8993 445.28 25.4456 443.817 25.0147C444.203 23.4738 444.546 21.9597 444.783 20.5182C445.463 16.3895 445.535 12.7005 444.857 9.59913C444.18 6.49779 442.668 3.87998 440.136 2.45297C438.869 1.73947 437.466 1.39247 435.993 1.34415ZM435.82 5.09543C436.744 5.12009 437.532 5.3347 438.206 5.71464C439.555 6.47454 440.552 7.95349 441.084 10.3875C441.615 12.8216 441.597 16.1103 440.969 19.9241C440.754 21.2299 440.442 22.6139 440.088 24.0318C436.225 23.1247 431.993 22.4512 427.483 22.0554C425.217 18.9915 422.888 16.2043 420.541 13.7284C421.782 12.546 423.015 11.4402 424.219 10.4847C427.289 8.0472 430.196 6.38858 432.622 5.62104C433.834 5.23727 434.896 5.07077 435.82 5.09543ZM399.98 5.10623C400.909 5.08091 401.973 5.24696 403.189 5.63184C405.622 6.4016 408.534 8.05948 411.607 10.4991C412.786 11.4352 413.992 12.5169 415.207 13.6708C412.843 16.1664 410.497 18.9827 408.217 22.0734C403.722 22.4765 399.506 23.1564 395.66 24.0678C395.308 22.6566 395 21.2783 394.786 19.9781C394.158 16.1609 394.142 12.8682 394.675 10.4271C395.209 7.98606 396.214 6.49956 397.575 5.73264C398.255 5.34919 399.05 5.13155 399.98 5.10623ZM417.903 16.3817C419.442 18.0155 420.981 19.8041 422.507 21.7278C421.007 21.6668 419.489 21.6306 417.948 21.6306C416.375 21.6306 414.828 21.6679 413.3 21.7314C414.826 19.8059 416.365 18.0169 417.903 16.3817ZM417.948 25.3531C420.516 25.3531 423.019 25.4561 425.454 25.6303C427.13 27.9788 428.767 30.4704 430.327 33.1076C431.698 35.4249 432.938 37.7385 434.068 40.0234C432.927 42.3385 431.665 44.6835 430.276 47.0327C429.052 49.1007 427.775 51.0647 426.476 52.9585C423.726 53.1828 420.876 53.3077 417.948 53.3077C414.949 53.3077 412.035 53.1754 409.224 52.9405C407.947 51.074 406.691 49.1361 405.487 47.1011C404.101 44.7573 402.845 42.4202 401.706 40.1098C402.85 37.7863 404.111 35.4327 405.506 33.0752C407.057 30.4519 408.69 27.9747 410.356 25.6375C412.817 25.4593 415.35 25.3531 417.948 25.3531ZM430.32 26.0911C433.432 26.4702 436.354 26.9968 439.073 27.6283C438.266 30.211 437.272 32.9086 436.067 35.6925C435.285 34.2208 434.474 32.7441 433.599 31.2644C432.539 29.4721 431.436 27.7607 430.32 26.0911ZM405.376 26.1199C404.283 27.7591 403.207 29.4355 402.167 31.1924C401.281 32.6911 400.454 34.1877 399.663 35.6781C398.468 32.9109 397.48 30.2286 396.678 27.6607C399.379 27.0278 402.285 26.5033 405.376 26.1199ZM442.81 28.6075C444.149 29.0029 445.442 29.4155 446.628 29.8676C450.235 31.2427 453.089 32.8711 454.939 34.5369C456.788 36.2026 457.591 37.7911 457.591 39.3322C457.591 40.8732 456.788 42.4617 454.939 44.1275C453.089 45.7932 450.235 47.4216 446.628 48.7968C445.31 49.2992 443.862 49.7547 442.356 50.1864C441.282 46.9445 439.911 43.5624 438.28 40.1098C440.156 36.1458 441.671 32.2809 442.81 28.6075ZM393.023 28.6255C394.149 32.2621 395.644 36.0889 397.494 40.0126C395.851 43.4854 394.474 46.8867 393.395 50.1468C391.943 49.7265 390.544 49.2833 389.268 48.7968C385.66 47.4216 382.806 45.7932 380.957 44.1275C379.107 42.4617 378.305 40.8732 378.305 39.3322C378.305 37.7911 379.107 36.2026 380.957 34.5369C382.806 32.8711 385.66 31.2427 389.268 29.8676C390.435 29.4224 391.707 29.0157 393.023 28.6255ZM417.948 30.8648C412.755 30.8648 408.504 35.0128 408.504 40.081C408.504 45.1491 412.755 49.2972 417.948 49.2972C423.141 49.2972 427.391 45.1491 427.391 40.081C427.391 35.0128 423.141 30.8648 417.948 30.8648ZM417.948 34.5513C421.099 34.5513 423.614 37.0052 423.614 40.081C423.614 43.1568 421.099 45.6107 417.948 45.6107C414.796 45.6107 412.282 43.1568 412.282 40.081C412.282 37.0052 414.796 34.5513 417.948 34.5513ZM436.115 44.4371C437.105 46.7249 437.966 48.9636 438.69 51.1224C436.418 51.6364 434 52.0695 431.456 52.4112C432.188 51.2709 432.911 50.1092 433.618 48.9156C434.503 47.4193 435.325 45.9249 436.115 44.4371ZM399.707 44.4407C400.501 45.9378 401.328 47.4387 402.219 48.9444C402.916 50.123 403.628 51.2738 404.351 52.4004C401.815 52.0572 399.404 51.6226 397.139 51.108C397.859 48.9558 398.721 46.7218 399.707 44.4407ZM396.051 54.6865C399.469 55.4768 403.174 56.0838 407.103 56.4793C409.726 60.182 412.457 63.5072 415.207 66.4155C413.977 67.5855 412.759 68.6836 411.566 69.6304C408.496 72.068 405.585 73.723 403.159 74.4905C400.734 75.2581 398.923 75.1568 397.575 74.3969C396.226 73.637 395.233 72.1581 394.701 69.724C394.169 67.29 394.184 64.0049 394.812 60.191C395.097 58.4608 395.522 56.6082 396.051 54.6865ZM439.781 54.7009C440.314 56.6333 440.742 58.4946 441.028 60.2342C441.657 64.0514 441.672 67.3405 441.139 69.7816C440.606 72.2227 439.604 73.7128 438.243 74.4797C436.882 75.2466 435.058 75.3503 432.625 74.5805C430.192 73.8108 427.281 72.1493 424.208 69.7096C423.006 68.756 421.779 67.6526 420.541 66.4731C423.309 63.5539 426.06 60.2105 428.7 56.4865C432.639 56.0937 436.354 55.4902 439.781 54.7009ZM412.031 56.8573C413.97 56.9605 415.935 57.0301 417.948 57.0301C419.894 57.0301 421.795 56.9647 423.673 56.8681C421.753 59.3955 419.797 61.6932 417.848 63.7623C415.901 61.6888 413.948 59.387 412.031 56.8573Z" fill="url(#paint2_linear)"/>
<path d="M0 2L0.326087 6.09623L6.41304 80.1795L6.63043 82.7542L8.91304 83.4564L36.5217 91.7659L37.3913 92L38.3696 91.7659L65.9783 83.5735L68.2609 82.8713L68.4783 80.2965L74.6739 6.09623L75 2.11704H71.1956L3.80435 2H0ZM7.6087 9.49025L67.3913 9.60728L61.7391 77.0195L37.5 84.2757L13.1522 77.0195L7.6087 9.49025ZM15.9783 20.7256L18.2609 48.697H48.0435L47.0652 60.7516L37.5 63.5605H37.3913L27.8261 60.7516L27.2826 53.0273H18.587L19.7826 67.8908L37.3913 73.1573H37.5L55.1087 67.8908L57.5 39.4512H26.087L25.3261 29.9714H58.2609L59.0217 20.7256H15.9783Z" fill="url(#paint3_linear)"/>
<defs>
<linearGradient id="paint0_linear" x1="160.406" y1="0.578354" x2="160.406" y2="92.9079" gradientUnits="userSpaceOnUse">
<stop stop-color="#282833"/>
<stop offset="1" stop-color="#16161B"/>
</linearGradient>
<linearGradient id="paint1_linear" x1="287.03" y1="2.37836" x2="287.03" y2="90.3511" gradientUnits="userSpaceOnUse">
<stop stop-color="#282833"/>
<stop offset="1" stop-color="#16161B"/>
</linearGradient>
<linearGradient id="paint2_linear" x1="417.948" y1="1.33826" x2="417.948" y2="78.7842" gradientUnits="userSpaceOnUse">
<stop stop-color="#282833"/>
<stop offset="1" stop-color="#16161B"/>
</linearGradient>
<linearGradient id="paint3_linear" x1="37.5" y1="2" x2="37.5" y2="92" gradientUnits="userSpaceOnUse">
<stop stop-color="#282833"/>
<stop offset="1" stop-color="#16161B"/>
</linearGradient>
</defs>
</svg>
